<svg xmlns="http://www.w3.org/2000/svg" width="430" height="430" style="width:100%;height:100%;transform:translate3d(0,0,0);content-visibility:visible" viewBox="0 0 430 430"><defs><clipPath id="a"><path d="M0 0h430v430H0z"/></clipPath><clipPath id="b"><path d="M0 0h430v430H0z"/></clipPath></defs><g clip-path="url(#a)"><g fill="none" stroke-linecap="round" stroke-linejoin="round" stroke-width="7" clip-path="url(#b)" style="display:block"><g stroke="#121331" style="display:block"><path d="M176.299 252.03c0 40.531-32.857 73.388-73.388 73.388-40.531 0-73.388-32.857-73.388-73.388 0-40.531 32.857-73.388 73.388-73.388 40.531 0 73.388 32.857 73.388 73.388z" class="primary"/><path d="M102.911 301.723c-27.445 0-49.694-22.248-49.694-49.693" class="primary"/></g><g stroke="#121331" style="display:block"><path d="M401.299 252.03c0 40.531-32.857 73.388-73.388 73.388-40.531 0-73.388-32.857-73.388-73.388 0-40.531 32.857-73.388 73.388-73.388 40.531 0 73.388 32.857 73.388 73.388z" class="primary"/><path d="M327.911 301.723c-27.445 0-49.694-22.248-49.694-49.693" class="primary"/></g><g style="display:block"><path stroke="#F24C00" d="m102.911 252.03 72.059-94.681L215 252.03H102.911z" class="secondary"/><path stroke="#F24C00" d="m215 252.03 80.06-120.09-120.09 25.409-22.686-51.776M328.418 252.03 295.06 131.94l-6.355-26.686h31.37c7.369 0 13.343 5.974 13.343 13.343 0 0 0 0 0 0 0 7.369-5.974 13.343-13.343 13.343" class="secondary"/><path stroke="#121331" d="M288.705 105.254h31.37c7.369 0 13.343 5.974 13.343 13.343 0 0 0 0 0 0 0 7.369-5.974 13.343-13.343 13.343m-191.806-27.006h40.03" class="primary"/></g></g></g></svg>